<svg xmlns="http://www.w3.org/2000/svg" width="226.666" height="116.93" viewBox="0 0 226.666 116.93"><g id="Group_327" data-name="Group 327" transform="translate(-655.897 -66.984)"><path id="Path_164" data-name="Path 164" d="M729.224,115.363h0Z"/><path id="Path_165" data-name="Path 165" d="M697.768,70.279V70.8l.538-.539C698.127,70.268,697.952,70.279,697.768,70.279Z" fill="none"/><path id="Path_166" data-name="Path 166" d="M723.3,87.323v.389l.4-.4C723.565,87.315,723.434,87.323,723.3,87.323Z" fill="none"/><path id="Path_167" data-name="Path 167" d="M672.239,87.323v.389l.4-.4C672.507,87.315,672.376,87.323,672.239,87.323Z" fill="none"/><path id="Path_168" data-name="Path 168" d="M705.2,95.531l-1.091,1.091,1.25.724Z" fill="#dbdbdb"/><path id="Path_169" data-name="Path 169" d="M697.768,92.951l.081.047v-.7l6.495-6.494-.182-2.065-6.313,6.312v-.962l6.235-6.235-.181-2.065-6.054,6.054v-.962l5.976-5.976-.181-2.065-5.795,5.794v-.961l5.717-5.718-.178-2.03-5.539,5.5v-.884l5.464-5.464-.185-2.109-5.279,5.327v-.962l5.205-5.205-.187-2.137-5.018,5.017-.081-.883,3.237-3.238c1.1-.3,1.818-.749,1.818-1.255,0-.91-2.263-1.648-5.055-1.648s-5.056.738-5.056,1.648h-.007l-2.524,28.712,5.207-3.015Z" fill="#dbdbdb"/><path id="Path_170" data-name="Path 170" d="M701.517,95.122l3.351-3.35-.185-2.1-4.63,4.6.095.055Z" fill="#dbdbdb"/><path id="Path_171" data-name="Path 171" d="M705.12,94.646l-.178-2.028-2.831,2.847,1.386.8Z" fill="#dbdbdb"/><path id="Path_172" data-name="Path 172" d="M704.6,88.751l-.181-2.065-6.408,6.408,1.423.824Z" fill="#dbdbdb"/><path id="Path_173" data-name="Path 173" d="M729.228,110.569l-.379.379.434.251Z" fill="#dbdbdb"/><path id="Path_174" data-name="Path 174" d="M729.17,109.911l-.135-1.542-1.7,1.7,1.063.615Z" fill="#dbdbdb"/><path id="Path_175" data-name="Path 175" d="M728.783,105.507l-.133-1.513-4.315,4.34,1.027.594Z" fill="#dbdbdb"/><path id="Path_176" data-name="Path 176" d="M728.977,107.708l-.135-1.541-3.025,3.025,1.062.615Z" fill="#dbdbdb"/><path id="Path_177" data-name="Path 177" d="M728.595,103.362l-.138-1.569-5.1,5.071v-.717l5.039-5.04-.136-1.541-4.9,4.9v-.717l4.846-4.846-.136-1.541-4.71,4.71v-.718l4.652-4.652-.135-1.541-4.517,4.517v-.718l4.459-4.459-.135-1.541-4.324,4.324V96.57l4.266-4.267-.134-1.514-4.132,4.106v-.66l4.078-4.077-.138-1.574-3.939,3.975v-.718l3.885-3.884-.14-1.6-3.745,3.744-.06-.659,2.416-2.416c.822-.226,1.356-.559,1.356-.937,0-.679-1.689-1.229-3.772-1.229s-3.773.55-3.773,1.229h-.005L717.891,104.6l5.993,3.47Z" fill="#dbdbdb"/><path id="Path_178" data-name="Path 178" d="M677.537,103.362l-.138-1.569-5.1,5.071v-.717l5.039-5.04-.135-1.541-4.9,4.9v-.717l4.846-4.846-.136-1.541-4.71,4.71v-.718l4.652-4.652-.135-1.541L672.3,99.682v-.718l4.459-4.459-.135-1.541L672.3,97.288V96.57l4.266-4.267-.133-1.514L672.3,94.895v-.66l4.077-4.077-.138-1.574L672.3,92.559v-.718l3.884-3.884-.14-1.6L672.3,90.106l-.061-.659,2.416-2.416c.823-.226,1.356-.559,1.356-.937,0-.679-1.688-1.229-3.772-1.229s-3.773.55-3.773,1.229h-.005l-2.207,25.1,8.188-4.741Z" fill="#dbdbdb"/><path id="Path_179" data-name="Path 179" d="M677.593,103.994l-1.5,1.505,1.55-.9Z" fill="#dbdbdb"/><g id="Group_325" data-name="Group 325"><path id="Path_180" data-name="Path 180" d="M764.261,127.964v2.921a2.59,2.59,0,0,1-2.578,2.6l-7.935.021a2.59,2.59,0,0,1-2.595-2.587l-.005-1.205,2.932-.01,0,.6a.259.259,0,0,0,.26.258l6.726-.016a.259.259,0,0,0,.258-.261l0-1.352a.258.258,0,0,0-.259-.258H753.2a2.047,2.047,0,0,1-2.047-2.047l0-2.948a2.592,2.592,0,0,1,2.587-2.6h7.935a2.591,2.591,0,0,1,2.587,2.6v1.2h-2.933v-.6a.259.259,0,0,0-.258-.259h-6.726a.26.26,0,0,0-.259.26v1.37a.258.258,0,0,0,.259.259h7.872A2.047,2.047,0,0,1,764.261,127.964Z" fill="#ffd530"/><path id="Path_181" data-name="Path 181" d="M780.418,124.057v6.482a2.97,2.97,0,0,1-2.97,2.97H769.93a2.969,2.969,0,0,1-2.97-2.97v-6.482a2.97,2.97,0,0,1,2.97-2.97h7.518A2.97,2.97,0,0,1,780.418,124.057Zm-2.934.58a.617.617,0,0,0-.617-.617H770.51a.617.617,0,0,0-.617.617v5.322a.617.617,0,0,0,.617.617h6.357a.617.617,0,0,0,.617-.617Z" fill="#ffd530"/><path id="Path_182" data-name="Path 182" d="M783.109,121.087h11.56v2.773h-8.421v2.156h7.037v2.8h-7.037v4.7h-3.139Z" fill="#ffd530"/><path id="Path_183" data-name="Path 183" d="M809.284,121.087v2.933h-4.658v9.489h-3.1V124.02h-4.659v-2.933Z" fill="#ffd530"/><path id="Path_184" data-name="Path 184" d="M825.739,121.087h3.016l-3.561,12.422-3.787-.016-1.509-6.21-1.508,6.21-3.786.016-3.562-12.422h3.017l2.463,8.195,2.043-8.195h2.671l2.038,8.195Z" fill="#ffd530"/><path id="Path_185" data-name="Path 185" d="M838.509,131.6h-6.166l-.858,1.908h-3.1l5.234-12.422h3.622l5.235,12.422h-3.106Zm-1.229-2.734-1.854-4.726-1.856,4.726Z" fill="#ffd530"/><path id="Path_186" data-name="Path 186" d="M857.394,123.675v3.8a2.588,2.588,0,0,1-2.312,2.572l2.312,3.466h-3.451l-2.3-3.45h-4.06v3.45h-3.1V121.087h10.33A2.588,2.588,0,0,1,857.394,123.675Zm-2.933.6a.259.259,0,0,0-.259-.258h-6.621v3.105H854.2a.259.259,0,0,0,.259-.259Z" fill="#ffd530"/><path id="Path_187" data-name="Path 187" d="M860.093,121.087h11.386v2.76h-8.248v1.974H870.1v2.953h-6.866v1.974h8.248v2.761H860.093Z" fill="#ffd530"/><path id="Path_188" data-name="Path 188" d="M751.148,137.794h11.56v2.773h-8.421v2.156h7.037v2.795h-7.037v4.7h-3.139Z" fill="#ffd530"/><path id="Path_189" data-name="Path 189" d="M772.706,148.308H766.54l-.857,1.908h-3.106l5.235-12.422h3.622l5.234,12.422h-3.105Zm-1.228-2.734-1.855-4.726-1.855,4.726Z" fill="#ffd530"/><path id="Path_190" data-name="Path 190" d="M791.612,140.382V142.1H788.68v-1.115a.259.259,0,0,0-.259-.258h-6.557a.259.259,0,0,0-.259.258v6.039a.26.26,0,0,0,.259.259h6.557a.26.26,0,0,0,.259-.259V145.91h2.932v1.718a2.588,2.588,0,0,1-2.588,2.588h-7.763a2.588,2.588,0,0,1-2.588-2.588v-7.246a2.588,2.588,0,0,1,2.588-2.588h7.763A2.587,2.587,0,0,1,791.612,140.382Z" fill="#ffd530"/><path id="Path_191" data-name="Path 191" d="M806.25,137.794v2.933h-4.658v9.489h-3.106v-9.489h-4.658v-2.933Z" fill="#ffd530"/><path id="Path_192" data-name="Path 192" d="M821.873,140.764v6.482a2.97,2.97,0,0,1-2.97,2.97h-7.518a2.969,2.969,0,0,1-2.97-2.97v-6.482a2.97,2.97,0,0,1,2.97-2.97H818.9A2.97,2.97,0,0,1,821.873,140.764Zm-2.934.58a.617.617,0,0,0-.617-.617h-6.357a.617.617,0,0,0-.617.617v5.322a.617.617,0,0,0,.617.617h6.357a.617.617,0,0,0,.617-.617Z" fill="#ffd530"/><path id="Path_193" data-name="Path 193" d="M837.482,140.382v3.8a2.587,2.587,0,0,1-2.311,2.572l2.311,3.466h-3.45l-2.3-3.45H827.67v3.45h-3.106V137.794H834.9A2.587,2.587,0,0,1,837.482,140.382Zm-2.932.6a.259.259,0,0,0-.259-.258H827.67v3.1h6.621a.259.259,0,0,0,.259-.259Z" fill="#ffd530"/><path id="Path_194" data-name="Path 194" d="M848.38,137.794h3.4l-4.688,7.745v4.677h-3.106v-4.677l-4.688-7.745h3.395l2.846,4.817Z" fill="#ffd530"/></g><g id="Group_326" data-name="Group 326"><path id="Path_195" data-name="Path 195" d="M755.606,158.088v.862a.826.826,0,0,0,0,1.186V161a1.042,1.042,0,0,1-1.047,1.039h-4.217v-4.988h4.217A1.043,1.043,0,0,1,755.606,158.088Zm-1.187.174a.1.1,0,0,0-.1-.1H751.6v.863h2.715a.1.1,0,0,0,.1-.105Zm0,1.909a.1.1,0,0,0-.1-.105H751.6v.863h2.715a.1.1,0,0,0,.1-.1Z" fill="#fff"/><path id="Path_196" data-name="Path 196" d="M759.988,157.049h1.364l-1.883,3.11v1.878h-1.247v-1.878l-1.882-3.11H757.7l1.143,1.934Z" fill="#fff"/><path id="Path_197" data-name="Path 197" d="M770.347,159.811v1.172a1.041,1.041,0,0,1-1.035,1.046l-3.186.008A1.041,1.041,0,0,1,765.083,161v-.483l1.177,0v.24a.1.1,0,0,0,.1.1l2.7-.006a.1.1,0,0,0,.1-.1l0-.543a.1.1,0,0,0-.1-.1H765.9a.823.823,0,0,1-.821-.823v-1.184a1.041,1.041,0,0,1,1.039-1.042h3.186a1.042,1.042,0,0,1,1.039,1.043v.483h-1.178v-.241a.1.1,0,0,0-.1-.1h-2.7a.1.1,0,0,0-.1.1v.551a.1.1,0,0,0,.1.1h3.161A.821.821,0,0,1,770.347,159.811Z" fill="#fff"/><path id="Path_198" data-name="Path 198" d="M776.833,158.241v2.6a1.192,1.192,0,0,1-1.192,1.192h-3.019a1.192,1.192,0,0,1-1.192-1.192v-2.6a1.192,1.192,0,0,1,1.192-1.192h3.019A1.192,1.192,0,0,1,776.833,158.241Zm-1.178.234a.248.248,0,0,0-.248-.248h-2.553a.248.248,0,0,0-.247.248v2.136a.248.248,0,0,0,.247.248h2.553a.247.247,0,0,0,.248-.248Z" fill="#fff"/><path id="Path_199" data-name="Path 199" d="M779.16,160.859h2.96v1.178h-4.207v-4.988h1.247Z" fill="#fff"/><path id="Path_200" data-name="Path 200" d="M788.25,158.2v2.68a1.155,1.155,0,0,1-1.156,1.154h-4.109v-4.988h4.109A1.155,1.155,0,0,1,788.25,158.2Zm-1.18.27a.246.246,0,0,0-.246-.246h-2.659v2.632h2.659a.246.246,0,0,0,.246-.246Z" fill="#fff"/><path id="Path_201" data-name="Path 201" d="M789.34,162.037v-4.988h1.247v4.988Z" fill="#fff"/><path id="Path_202" data-name="Path 202" d="M791.67,157.049h4.572v1.108H792.93v.793h2.757v1.186H792.93v.793h3.312v1.108H791.67Z" fill="#fff"/><path id="Path_203" data-name="Path 203" d="M802.506,158.088v1.524a1.04,1.04,0,0,1-.928,1.034l.928,1.391h-1.385l-.925-1.386h-1.63v1.386h-1.247v-4.988h4.148A1.039,1.039,0,0,1,802.506,158.088Zm-1.178.243a.1.1,0,0,0-.1-.1h-2.659v1.247h2.659a.1.1,0,0,0,.1-.1Z" fill="#fff"/><path id="Path_204" data-name="Path 204" d="M808.854,159.811v1.172a1.042,1.042,0,0,1-1.036,1.046l-3.185.008A1.041,1.041,0,0,1,803.59,161v-.483l1.177,0v.24a.1.1,0,0,0,.1.1l2.7-.006a.1.1,0,0,0,.1-.1l0-.543a.1.1,0,0,0-.1-.1h-3.16a.823.823,0,0,1-.821-.823v-1.184a1.041,1.041,0,0,1,1.039-1.042h3.185a1.042,1.042,0,0,1,1.04,1.043v.483h-1.178v-.241a.1.1,0,0,0-.1-.1h-2.7a.1.1,0,0,0-.1.1v.551a.1.1,0,0,0,.1.1h3.161A.822.822,0,0,1,808.854,159.811Z" fill="#fff"/><path id="Path_205" data-name="Path 205" d="M809.729,161.335a.7.7,0,1,1,.7.7A.7.7,0,0,1,809.729,161.335Z" fill="#fff"/><path id="Path_206" data-name="Path 206" d="M815.023,157.049h4.642v1.114h-3.382v.865h2.826v1.122h-2.826v1.887h-1.26Z" fill="#fff"/><path id="Path_207" data-name="Path 207" d="M826.154,158.241v2.6a1.192,1.192,0,0,1-1.192,1.192h-3.019a1.192,1.192,0,0,1-1.192-1.192v-2.6a1.192,1.192,0,0,1,1.192-1.192h3.019A1.192,1.192,0,0,1,826.154,158.241Zm-1.177.234a.249.249,0,0,0-.248-.248h-2.553a.247.247,0,0,0-.247.248v2.136a.247.247,0,0,0,.247.248h2.553a.248.248,0,0,0,.248-.248Z" fill="#fff"/><path id="Path_208" data-name="Path 208" d="M832.421,158.088v1.524a1.04,1.04,0,0,1-.928,1.034l.928,1.391h-1.386l-.924-1.386h-1.63v1.386h-1.247v-4.988h4.148A1.039,1.039,0,0,1,832.421,158.088Zm-1.178.243a.1.1,0,0,0-.1-.1h-2.659v1.247h2.659a.1.1,0,0,0,.1-.1Z" fill="#fff"/><path id="Path_209" data-name="Path 209" d="M841.774,159.811v1.172a1.04,1.04,0,0,1-1.035,1.046l-3.185.008A1.04,1.04,0,0,1,836.511,161v-.483l1.177,0v.24a.1.1,0,0,0,.1.1l2.7-.006a.1.1,0,0,0,.1-.1l0-.543a.1.1,0,0,0-.1-.1h-3.16a.823.823,0,0,1-.821-.823v-1.184a1.041,1.041,0,0,1,1.039-1.042h3.185a1.041,1.041,0,0,1,1.039,1.043v.483H840.6v-.241a.1.1,0,0,0-.1-.1h-2.7a.1.1,0,0,0-.1.1v.551a.1.1,0,0,0,.1.1h3.161A.821.821,0,0,1,841.774,159.811Z" fill="#fff"/><path id="Path_210" data-name="Path 210" d="M848.261,158.241v2.6a1.193,1.193,0,0,1-1.193,1.192H844.05a1.193,1.193,0,0,1-1.193-1.192v-2.6a1.193,1.193,0,0,1,1.193-1.192h3.018A1.193,1.193,0,0,1,848.261,158.241Zm-1.178.234a.248.248,0,0,0-.248-.248h-2.553a.248.248,0,0,0-.247.248v2.136a.248.248,0,0,0,.247.248h2.553a.247.247,0,0,0,.248-.248Z" fill="#fff"/><path id="Path_211" data-name="Path 211" d="M850.588,160.859h2.96v1.178h-4.207v-4.988h1.247Z" fill="#fff"/><path id="Path_212" data-name="Path 212" d="M859.678,158.2v2.68a1.155,1.155,0,0,1-1.157,1.154h-4.108v-4.988h4.108A1.155,1.155,0,0,1,859.678,158.2Zm-1.18.27a.246.246,0,0,0-.246-.246h-2.659v2.632h2.659a.246.246,0,0,0,.246-.246Z" fill="#fff"/><path id="Path_213" data-name="Path 213" d="M860.768,162.037v-4.988h1.247v4.988Z" fill="#fff"/><path id="Path_214" data-name="Path 214" d="M863.1,157.049h4.572v1.108h-3.313v.793h2.757v1.186h-2.757v.793h3.313v1.108H863.1Z" fill="#fff"/><path id="Path_215" data-name="Path 215" d="M873.934,158.088v1.524a1.041,1.041,0,0,1-.928,1.034l.928,1.391h-1.385l-.925-1.386h-1.63v1.386h-1.247v-4.988H872.9A1.039,1.039,0,0,1,873.934,158.088Zm-1.178.243a.1.1,0,0,0-.1-.1h-2.658v1.247h2.658a.1.1,0,0,0,.1-.1Z" fill="#fff"/><path id="Path_216" data-name="Path 216" d="M880.281,159.811v1.172a1.041,1.041,0,0,1-1.035,1.046l-3.185.008A1.04,1.04,0,0,1,875.018,161v-.483l1.176,0v.24a.1.1,0,0,0,.105.1l2.7-.006a.1.1,0,0,0,.1-.1l0-.543a.1.1,0,0,0-.1-.1h-3.16a.823.823,0,0,1-.821-.823v-1.184a1.04,1.04,0,0,1,1.039-1.042h3.185a1.042,1.042,0,0,1,1.039,1.043v.483H879.1v-.241a.1.1,0,0,0-.1-.1h-2.7a.1.1,0,0,0-.105.1v.551a.1.1,0,0,0,.105.1h3.161A.821.821,0,0,1,880.281,159.811Z" fill="#fff"/><path id="Path_217" data-name="Path 217" d="M881.157,161.335a.7.7,0,1,1,.7.7A.7.7,0,0,1,881.157,161.335Z" fill="#fff"/></g><path id="Path_218" data-name="Path 218" d="M655.9,122.683V159.67l41.871,24.244V98.439Zm32.575,8.739-16.846,9.755,16.846,9.753v4.827l-25.181-14.58L688.472,126.6Z" fill="#8d8d8e"/><path id="Path_219" data-name="Path 219" d="M739.455,122.577,697.768,98.439v85.475l41.862-24.239ZM707,155.757V150.93l16.846-9.753L707,131.422V126.6l25.181,14.581Z" fill="#fff"/></g></svg>