<?xml version="1.0" encoding="UTF-8"?>
<svg version="1.1" xmlns="http://www.w3.org/2000/svg" xmlns:xlink="http://www.w3.org/1999/xlink" viewBox="0 0 733.88 435.04" xml:space="preserve">
  <path fill="#0A2740" d="M149.61,397.72c0,0-60.23-76.96,1.31-141.1C212.84,192.1,332.22,77.5,332.22,77.5l-45.79-46.71   c0,0-58.3-60.92-125.49,6.27c-52.27,52.27-98.95,99.2-117.09,117.46c-7.24,7.29-13.12,15.8-17.18,25.24   c-10.53,24.5-21.33,71.3,21.5,114.13C109.71,355.42,149.61,397.72,149.61,397.72z"/>
  <path fill="#F5C34D" d="M579.59,31.89c0,0,63.23,80.17,0,143.4S400.06,355.96,400.06,355.96l44.04,45.17c0,0,61.54,62.67,128.72-4.52   s120.82-128.72,120.82-128.72s50.25-68.31-11.29-129.85S579.59,31.89,579.59,31.89z"/>
  <path fill="#1B1B1B" d="M350.8,341.35l-41.44,42.44c0,0-50.54,53.4-110.02,38.53c-74.52-18.63-74.95-71.21-76.08-96.19   c-2.19-48.48,28.44-70.5,36.42-78.76l48.43-49.31L350.8,341.35"/>
  <path fill="#D79128" d="M380.03,89.61l41.44-42.44c0,0,50.54-53.4,110.02-38.53c74.52,18.63,74.95,71.21,76.08,96.19   c2.19,48.48-28.44,70.5-36.42,78.76l-48.7,49.12L380.03,89.61"/>
</svg>